<svg xmlns="http://www.w3.org/2000/svg" viewBox="0 0 128 128" width="128" height="128">
  <defs>
    <radialGradient id="br-main" cx="35%" cy="28%" r="80%">
      <stop offset="0%" stop-color="#FCFCFD"/>
      <stop offset="25%" stop-color="#E8E8EC"/>
      <stop offset="60%" stop-color="#8B8D98"/>
      <stop offset="100%" stop-color="#1C2024"/>
    </radialGradient>
    <radialGradient id="br-hi" cx="50%" cy="40%" r="50%">
      <stop offset="0%" stop-color="#FFF" stop-opacity="0.9"/>
      <stop offset="100%" stop-color="#FFF" stop-opacity="0"/>
    </radialGradient>
    <linearGradient id="br-groove" x1="0%" y1="0%" x2="0%" y2="100%">
      <stop offset="0%" stop-color="#000" stop-opacity="0.22"/>
      <stop offset="100%" stop-color="#000" stop-opacity="0"/>
    </linearGradient>
    <filter id="br-shadow" x="-20%" y="-20%" width="140%" height="140%">
      <feGaussianBlur in="SourceAlpha" stdDeviation="3"/>
      <feOffset dx="0" dy="4"/>
      <feComponentTransfer><feFuncA type="linear" slope="0.32"/></feComponentTransfer>
      <feMerge><feMergeNode/><feMergeNode in="SourceGraphic"/></feMerge>
    </filter>
  </defs>
  <g filter="url(#br-shadow)">
    <path d="M 64 18 C 48 18, 36 28, 34 44 C 22 46, 16 58, 20 70 C 14 78, 18 92, 28 96 C 30 108, 42 114, 54 110 C 60 116, 68 116, 74 110 C 86 114, 98 108, 100 96 C 110 92, 114 78, 108 70 C 112 58, 106 46, 94 44 C 92 28, 80 18, 64 18 Z" fill="url(#br-main)"/>
    <path d="M 64 22 C 62 40, 66 62, 62 80 C 66 92, 62 104, 64 112" stroke="url(#br-groove)" stroke-width="3" fill="none" stroke-linecap="round"/>
    <path d="M 40 52 C 44 56, 48 58, 52 56" stroke="#000" stroke-opacity="0.15" stroke-width="2.5" fill="none" stroke-linecap="round"/>
    <path d="M 40 72 C 44 76, 50 78, 54 76" stroke="#000" stroke-opacity="0.15" stroke-width="2.5" fill="none" stroke-linecap="round"/>
    <path d="M 74 54 C 80 56, 86 56, 90 52" stroke="#000" stroke-opacity="0.15" stroke-width="2.5" fill="none" stroke-linecap="round"/>
    <path d="M 74 74 C 80 78, 86 78, 92 74" stroke="#000" stroke-opacity="0.15" stroke-width="2.5" fill="none" stroke-linecap="round"/>
    <ellipse cx="44" cy="36" rx="14" ry="7" fill="url(#br-hi)" transform="rotate(-20 44 36)"/>
    <circle cx="38" cy="32" r="3" fill="#FFF" opacity="0.6"/>
  </g>
</svg>
