<svg xmlns="http://www.w3.org/2000/svg" viewBox="0 0 128 128" width="128" height="128">
  <defs>
    <linearGradient id="bc-body" x1="0%" y1="0%" x2="0%" y2="100%">
      <stop offset="0%" stop-color="#FFF8BB"/>
      <stop offset="30%" stop-color="#FFC53D"/>
      <stop offset="100%" stop-color="#4A3000"/>
    </linearGradient>
    <linearGradient id="bc-handle" x1="0%" y1="0%" x2="0%" y2="100%">
      <stop offset="0%" stop-color="#9E6C00"/>
      <stop offset="100%" stop-color="#4A3000"/>
    </linearGradient>
    <linearGradient id="bc-clasp" x1="0%" y1="0%" x2="0%" y2="100%">
      <stop offset="0%" stop-color="#F9E68C"/>
      <stop offset="100%" stop-color="#9E6C00"/>
    </linearGradient>
    <filter id="bc-shadow" x="-20%" y="-20%" width="140%" height="140%">
      <feGaussianBlur in="SourceAlpha" stdDeviation="3"/>
      <feOffset dx="0" dy="4"/>
      <feComponentTransfer><feFuncA type="linear" slope="0.32"/></feComponentTransfer>
      <feMerge><feMergeNode/><feMergeNode in="SourceGraphic"/></feMerge>
    </filter>
  </defs>
  <g filter="url(#bc-shadow)">
    <path d="M 48 28 Q 48 16, 64 16 Q 80 16, 80 28 L 80 40 L 72 40 L 72 28 Q 72 24, 64 24 Q 56 24, 56 28 L 56 40 L 48 40 Z" fill="url(#bc-handle)"/>
  </g>
  <g filter="url(#bc-shadow)">
    <rect x="16" y="40" width="96" height="68" rx="12" fill="url(#bc-body)"/>
    <path d="M 16 70 L 112 70" stroke="#000" stroke-opacity="0.2" stroke-width="2"/>
    <rect x="54" y="60" width="20" height="14" rx="3" fill="url(#bc-clasp)"/>
    <rect x="58" y="64" width="12" height="6" rx="2" fill="#FFF" opacity="0.5"/>
    <rect x="22" y="46" width="6" height="24" rx="3" fill="#FFF" opacity="0.55"/>
  </g>
</svg>
