<svg xmlns="http://www.w3.org/2000/svg" viewBox="0 0 128 128" width="128" height="128">
  <defs>
    <linearGradient id="ch-bar1" x1="0%" y1="0%" x2="100%" y2="100%">
      <stop offset="0%" stop-color="#E8E8EC"/>
      <stop offset="100%" stop-color="#80828D"/>
    </linearGradient>
    <linearGradient id="ch-bar2" x1="0%" y1="0%" x2="100%" y2="100%">
      <stop offset="0%" stop-color="#D9D9E0"/>
      <stop offset="100%" stop-color="#60646C"/>
    </linearGradient>
    <linearGradient id="ch-bar3" x1="0%" y1="0%" x2="100%" y2="100%">
      <stop offset="0%" stop-color="#B7E0FE"/>
      <stop offset="100%" stop-color="#0090FF"/>
    </linearGradient>
    <linearGradient id="ch-bar4" x1="0%" y1="0%" x2="100%" y2="100%">
      <stop offset="0%" stop-color="#5EB1EF"/>
      <stop offset="100%" stop-color="#113264"/>
    </linearGradient>
    <filter id="ch-shadow" x="-20%" y="-20%" width="140%" height="140%">
      <feGaussianBlur in="SourceAlpha" stdDeviation="3"/>
      <feOffset dx="0" dy="4"/>
      <feComponentTransfer><feFuncA type="linear" slope="0.32"/></feComponentTransfer>
      <feMerge><feMergeNode/><feMergeNode in="SourceGraphic"/></feMerge>
    </filter>
  </defs>
  <g filter="url(#ch-shadow)">
    <rect x="18" y="78" width="20" height="36" rx="8" fill="url(#ch-bar1)"/>
    <rect x="21" y="81" width="5" height="18" rx="2.5" fill="#FFF" opacity="0.5"/>
  </g>
  <g filter="url(#ch-shadow)">
    <rect x="44" y="60" width="20" height="54" rx="8" fill="url(#ch-bar2)"/>
    <rect x="47" y="63" width="5" height="28" rx="2.5" fill="#FFF" opacity="0.5"/>
  </g>
  <g filter="url(#ch-shadow)">
    <rect x="70" y="40" width="20" height="74" rx="8" fill="url(#ch-bar3)"/>
    <rect x="73" y="43" width="5" height="38" rx="2.5" fill="#FFF" opacity="0.5"/>
  </g>
  <g filter="url(#ch-shadow)">
    <rect x="96" y="22" width="20" height="92" rx="8" fill="url(#ch-bar4)"/>
    <rect x="99" y="25" width="5" height="46" rx="2.5" fill="#FFF" opacity="0.5"/>
  </g>
  <g filter="url(#ch-shadow)">
    <path d="M 22 54 Q 52 34, 88 22 L 82 18 Q 108 10, 116 14 Q 114 22, 106 32 L 100 28 Q 70 44, 34 66 Z" fill="#FFF" opacity="0.95"/>
  </g>
</svg>
