<svg xmlns="http://www.w3.org/2000/svg" viewBox="0 0 128 128" width="128" height="128">
  <defs>
    <radialGradient id="hs-hand1" cx="35%" cy="30%" r="80%">
      <stop offset="0%" stop-color="#FFF"/>
      <stop offset="30%" stop-color="#F9E68C"/>
      <stop offset="70%" stop-color="#FFC53D"/>
      <stop offset="100%" stop-color="#4A3000"/>
    </radialGradient>
    <radialGradient id="hs-hand2" cx="35%" cy="30%" r="80%">
      <stop offset="0%" stop-color="#FFF"/>
      <stop offset="30%" stop-color="#FFF8BB"/>
      <stop offset="70%" stop-color="#F9E68C"/>
      <stop offset="100%" stop-color="#9E6C00"/>
    </radialGradient>
    <radialGradient id="hs-glow" cx="50%" cy="50%" r="50%">
      <stop offset="0%" stop-color="#FFC53D" stop-opacity="0.3"/>
      <stop offset="100%" stop-color="#FFC53D" stop-opacity="0"/>
    </radialGradient>
    <filter id="hs-shadow" x="-20%" y="-20%" width="140%" height="140%">
      <feGaussianBlur in="SourceAlpha" stdDeviation="3"/>
      <feOffset dx="0" dy="4"/>
      <feComponentTransfer><feFuncA type="linear" slope="0.32"/></feComponentTransfer>
      <feMerge><feMergeNode/><feMergeNode in="SourceGraphic"/></feMerge>
    </filter>
  </defs>
  <circle cx="64" cy="64" r="44" fill="url(#hs-glow)"/>
  <g filter="url(#hs-shadow)">
    <path d="M 8 70 L 38 56 C 50 52, 56 56, 62 62 L 70 70 C 72 74, 70 78, 66 80 L 40 92 L 8 86 Z" fill="url(#hs-hand1)"/>
    <path d="M 52 62 C 56 58, 62 58, 66 62" stroke="#000" stroke-opacity="0.15" stroke-width="2" fill="none" stroke-linecap="round"/>
    <path d="M 56 68 C 60 64, 66 64, 70 68" stroke="#000" stroke-opacity="0.15" stroke-width="2" fill="none" stroke-linecap="round"/>
    <path d="M 18 72 L 30 66" stroke="#FFF" stroke-opacity="0.5" stroke-width="3" fill="none" stroke-linecap="round"/>
  </g>
  <g filter="url(#hs-shadow)">
    <path d="M 120 58 L 90 72 C 78 76, 72 72, 66 66 L 58 58 C 56 54, 58 50, 62 48 L 88 36 L 120 42 Z" fill="url(#hs-hand2)"/>
    <path d="M 76 66 C 72 70, 66 70, 62 66" stroke="#000" stroke-opacity="0.15" stroke-width="2" fill="none" stroke-linecap="round"/>
    <path d="M 72 60 C 68 64, 62 64, 58 60" stroke="#000" stroke-opacity="0.15" stroke-width="2" fill="none" stroke-linecap="round"/>
    <path d="M 110 56 L 98 62" stroke="#FFF" stroke-opacity="0.5" stroke-width="3" fill="none" stroke-linecap="round"/>
  </g>
</svg>
