<svg xmlns="http://www.w3.org/2000/svg" viewBox="0 0 128 128" width="128" height="128">
  <defs>
    <radialGradient id="lb-bulb" cx="38%" cy="32%" r="75%">
      <stop offset="0%" stop-color="#FFFEF0"/>
      <stop offset="35%" stop-color="#FFF8BB"/>
      <stop offset="75%" stop-color="#FFC53D"/>
      <stop offset="100%" stop-color="#4A3000"/>
    </radialGradient>
    <radialGradient id="lb-glow" cx="50%" cy="50%" r="50%">
      <stop offset="0%" stop-color="#FFF8BB" stop-opacity="0.6"/>
      <stop offset="100%" stop-color="#FFF8BB" stop-opacity="0"/>
    </radialGradient>
    <linearGradient id="lb-base" x1="0%" y1="0%" x2="0%" y2="100%">
      <stop offset="0%" stop-color="#CDCED6"/>
      <stop offset="100%" stop-color="#60646C"/>
    </linearGradient>
    <radialGradient id="lb-hi" cx="50%" cy="40%" r="50%">
      <stop offset="0%" stop-color="#FFF" stop-opacity="0.95"/>
      <stop offset="100%" stop-color="#FFF" stop-opacity="0"/>
    </radialGradient>
    <filter id="lb-shadow" x="-20%" y="-20%" width="140%" height="140%">
      <feGaussianBlur in="SourceAlpha" stdDeviation="3"/>
      <feOffset dx="0" dy="4"/>
      <feComponentTransfer><feFuncA type="linear" slope="0.32"/></feComponentTransfer>
      <feMerge><feMergeNode/><feMergeNode in="SourceGraphic"/></feMerge>
    </filter>
  </defs>
  <circle cx="64" cy="54" r="58" fill="url(#lb-glow)"/>
  <g filter="url(#lb-shadow)">
    <path d="M 64 14 C 42 14, 28 30, 28 50 C 28 66, 38 76, 46 84 C 48 90, 50 92, 52 92 L 76 92 C 78 92, 80 90, 82 84 C 90 76, 100 66, 100 50 C 100 30, 86 14, 64 14 Z" fill="url(#lb-bulb)"/>
    <ellipse cx="46" cy="36" rx="10" ry="18" fill="url(#lb-hi)" transform="rotate(-20 46 36)"/>
    <circle cx="40" cy="30" r="4" fill="#FFF" opacity="0.7"/>
    <path d="M 54 56 Q 58 64, 64 60 Q 70 64, 74 56" stroke="#4A3000" stroke-opacity="0.5" stroke-width="2" fill="none" stroke-linecap="round"/>
    <rect x="48" y="92" width="32" height="10" rx="3" fill="url(#lb-base)"/>
    <rect x="50" y="102" width="28" height="8" rx="3" fill="url(#lb-base)"/>
    <rect x="54" y="110" width="20" height="6" rx="2" fill="url(#lb-base)"/>
    <rect x="48" y="96" width="32" height="1.5" fill="#000" opacity="0.3"/>
    <rect x="50" y="106" width="28" height="1.5" fill="#000" opacity="0.3"/>
  </g>
</svg>
