<svg xmlns="http://www.w3.org/2000/svg" viewBox="0 0 128 128" width="128" height="128">
  <defs>
    <linearGradient id="rk-body" x1="0%" y1="0%" x2="100%" y2="100%">
      <stop offset="0%" stop-color="#FCFCFD"/>
      <stop offset="40%" stop-color="#E8E8EC"/>
      <stop offset="100%" stop-color="#60646C"/>
    </linearGradient>
    <radialGradient id="rk-win" cx="35%" cy="30%" r="75%">
      <stop offset="0%" stop-color="#FFF"/>
      <stop offset="40%" stop-color="#B7E0FE"/>
      <stop offset="100%" stop-color="#0090FF"/>
    </radialGradient>
    <linearGradient id="rk-fin" x1="0%" y1="0%" x2="100%" y2="100%">
      <stop offset="0%" stop-color="#FDBDBE"/>
      <stop offset="100%" stop-color="#CA3214"/>
    </linearGradient>
    <radialGradient id="rk-flame" cx="50%" cy="20%" r="70%">
      <stop offset="0%" stop-color="#FFF"/>
      <stop offset="30%" stop-color="#FFF8BB"/>
      <stop offset="70%" stop-color="#FFC53D"/>
      <stop offset="100%" stop-color="#E5484D"/>
    </radialGradient>
    <filter id="rk-shadow" x="-20%" y="-20%" width="140%" height="140%">
      <feGaussianBlur in="SourceAlpha" stdDeviation="3"/>
      <feOffset dx="0" dy="4"/>
      <feComponentTransfer><feFuncA type="linear" slope="0.32"/></feComponentTransfer>
      <feMerge><feMergeNode/><feMergeNode in="SourceGraphic"/></feMerge>
    </filter>
  </defs>
  <g filter="url(#rk-shadow)">
    <path d="M 52 92 Q 54 108, 64 120 Q 74 108, 76 92 Q 70 96, 64 94 Q 58 96, 52 92 Z" fill="url(#rk-flame)"/>
  </g>
  <g filter="url(#rk-shadow)">
    <path d="M 46 76 Q 36 82, 32 96 Q 44 94, 50 90 Q 48 82, 46 76 Z" fill="url(#rk-fin)"/>
  </g>
  <g filter="url(#rk-shadow)">
    <path d="M 82 76 Q 92 82, 96 96 Q 84 94, 78 90 Q 80 82, 82 76 Z" fill="url(#rk-fin)"/>
  </g>
  <g filter="url(#rk-shadow)">
    <path d="M 64 10 C 48 20, 44 44, 44 70 C 44 84, 50 94, 64 94 C 78 94, 84 84, 84 70 C 84 44, 80 20, 64 10 Z" fill="url(#rk-body)"/>
    <circle cx="64" cy="50" r="12" fill="url(#rk-win)"/>
    <ellipse cx="60" cy="46" rx="4" ry="2" fill="#FFF" opacity="0.7"/>
    <path d="M 50 28 Q 52 50, 54 80" stroke="#FFF" stroke-opacity="0.55" stroke-width="3" fill="none" stroke-linecap="round"/>
    <path d="M 48 78 Q 64 82, 80 78 L 80 84 Q 64 88, 48 84 Z" fill="#000" fill-opacity="0.18"/>
  </g>
</svg>
