<svg xmlns="http://www.w3.org/2000/svg" viewBox="0 0 128 128" width="128" height="128">
  <defs>
    <radialGradient id="tg-outer" cx="38%" cy="32%" r="75%">
      <stop offset="0%" stop-color="#FEEBEC"/>
      <stop offset="40%" stop-color="#E5484D"/>
      <stop offset="100%" stop-color="#641723"/>
    </radialGradient>
    <radialGradient id="tg-mid" cx="40%" cy="35%" r="70%">
      <stop offset="0%" stop-color="#FFF"/>
      <stop offset="100%" stop-color="#F0F0F3"/>
    </radialGradient>
    <radialGradient id="tg-inner" cx="38%" cy="32%" r="75%">
      <stop offset="0%" stop-color="#FEEBEC"/>
      <stop offset="50%" stop-color="#E5484D"/>
      <stop offset="100%" stop-color="#641723"/>
    </radialGradient>
    <radialGradient id="tg-bull" cx="35%" cy="30%" r="80%">
      <stop offset="0%" stop-color="#FFF"/>
      <stop offset="40%" stop-color="#FFC53D"/>
      <stop offset="100%" stop-color="#9E6C00"/>
    </radialGradient>
    <filter id="tg-shadow" x="-20%" y="-20%" width="140%" height="140%">
      <feGaussianBlur in="SourceAlpha" stdDeviation="3"/>
      <feOffset dx="0" dy="4"/>
      <feComponentTransfer><feFuncA type="linear" slope="0.32"/></feComponentTransfer>
      <feMerge><feMergeNode/><feMergeNode in="SourceGraphic"/></feMerge>
    </filter>
  </defs>
  <g filter="url(#tg-shadow)">
    <circle cx="64" cy="64" r="54" fill="url(#tg-outer)"/>
    <circle cx="64" cy="64" r="42" fill="url(#tg-mid)"/>
    <circle cx="64" cy="64" r="30" fill="url(#tg-inner)"/>
    <circle cx="64" cy="64" r="18" fill="url(#tg-mid)"/>
    <circle cx="64" cy="64" r="10" fill="url(#tg-bull)"/>
    <path d="M 22 48 Q 36 28, 64 26" stroke="#FFF" stroke-opacity="0.5" stroke-width="4" fill="none" stroke-linecap="round"/>
    <ellipse cx="40" cy="38" rx="10" ry="4" fill="#FFF" opacity="0.4" transform="rotate(-25 40 38)"/>
  </g>
  <g filter="url(#tg-shadow)" transform="rotate(-30 64 64)">
    <rect x="60" y="26" width="8" height="50" rx="4" fill="#60646C"/>
    <path d="M 64 14 L 72 28 L 64 24 L 56 28 Z" fill="#FDBDBE"/>
    <circle cx="64" cy="64" r="6" fill="#FFC53D"/>
  </g>
</svg>
