<svg xmlns="http://www.w3.org/2000/svg" viewBox="0 0 128 128" width="128" height="128">
  <defs>
    <radialGradient id="us-head1" cx="35%" cy="30%" r="80%">
      <stop offset="0%" stop-color="#FFF"/>
      <stop offset="40%" stop-color="#F9E68C"/>
      <stop offset="100%" stop-color="#9E6C00"/>
    </radialGradient>
    <radialGradient id="us-head2" cx="35%" cy="30%" r="80%">
      <stop offset="0%" stop-color="#FFF"/>
      <stop offset="40%" stop-color="#FFF8BB"/>
      <stop offset="100%" stop-color="#4A3000"/>
    </radialGradient>
    <radialGradient id="us-head3" cx="35%" cy="30%" r="80%">
      <stop offset="0%" stop-color="#FFF"/>
      <stop offset="40%" stop-color="#E8E8EC"/>
      <stop offset="100%" stop-color="#1C2024"/>
    </radialGradient>
    <linearGradient id="us-body1" x1="0%" y1="0%" x2="0%" y2="100%">
      <stop offset="0%" stop-color="#D9D9E0"/>
      <stop offset="100%" stop-color="#60646C"/>
    </linearGradient>
    <linearGradient id="us-body2" x1="0%" y1="0%" x2="0%" y2="100%">
      <stop offset="0%" stop-color="#B7E0FE"/>
      <stop offset="100%" stop-color="#0068D0"/>
    </linearGradient>
    <linearGradient id="us-body3" x1="0%" y1="0%" x2="0%" y2="100%">
      <stop offset="0%" stop-color="#E8E8EC"/>
      <stop offset="100%" stop-color="#1C2024"/>
    </linearGradient>
    <filter id="us-shadow" x="-20%" y="-20%" width="140%" height="140%">
      <feGaussianBlur in="SourceAlpha" stdDeviation="3"/>
      <feOffset dx="0" dy="4"/>
      <feComponentTransfer><feFuncA type="linear" slope="0.32"/></feComponentTransfer>
      <feMerge><feMergeNode/><feMergeNode in="SourceGraphic"/></feMerge>
    </filter>
  </defs>
  <g filter="url(#us-shadow)">
    <path d="M 92 70 C 78 70, 70 80, 70 94 C 70 106, 76 114, 88 114 L 116 114 C 118 104, 114 80, 92 70 Z" fill="url(#us-body3)"/>
    <circle cx="92" cy="52" r="14" fill="url(#us-head3)"/>
    <ellipse cx="88" cy="48" rx="3" ry="2" fill="#FFF" opacity="0.7"/>
  </g>
  <g filter="url(#us-shadow)">
    <path d="M 36 70 C 50 70, 58 80, 58 94 C 58 106, 52 114, 40 114 L 12 114 C 10 104, 14 80, 36 70 Z" fill="url(#us-body1)"/>
    <circle cx="36" cy="52" r="14" fill="url(#us-head1)"/>
    <ellipse cx="32" cy="48" rx="3" ry="2" fill="#FFF" opacity="0.7"/>
  </g>
  <g filter="url(#us-shadow)">
    <path d="M 64 60 C 46 60, 36 74, 36 92 C 36 108, 46 118, 62 118 L 66 118 C 82 118, 92 108, 92 92 C 92 74, 82 60, 64 60 Z" fill="url(#us-body2)"/>
    <circle cx="64" cy="40" r="18" fill="url(#us-head2)"/>
    <ellipse cx="58" cy="34" rx="5" ry="3" fill="#FFF" opacity="0.7"/>
  </g>
</svg>
